<mxfile host="app.diagrams.net" modified="2023-11-29T08:17:15.794Z" agent="Mozilla/5.0 (Windows NT 10.0; Win64; x64) AppleWebKit/537.36 (KHTML, like Gecko) Chrome/119.0.0.0 Safari/537.36" etag="c8w6XUQ98h_gPTuarXsP" version="22.1.4" type="github">
  <diagram name="Page-1" id="hUjEpkly2eNINpmnEEEA">
    <mxGraphModel dx="583" dy="294" grid="1" gridSize="10" guides="1" tooltips="1" connect="1" arrows="1" fold="1" page="1" pageScale="1" pageWidth="827" pageHeight="1169" math="0" shadow="0">
      <root>
        <mxCell id="0" />
        <mxCell id="1" parent="0" />
        <mxCell id="NbQcgySadGwn3jhOum9s-8" value="JobConnectorCompany" style="swimlane;fontStyle=1;align=center;verticalAlign=middle;childLayout=stackLayout;horizontal=1;startSize=29;horizontalStack=0;resizeParent=1;resizeParentMax=0;resizeLast=0;collapsible=0;marginBottom=0;html=1;whiteSpace=wrap;" vertex="1" parent="1">
          <mxGeometry x="310" y="150" width="250" height="79" as="geometry" />
        </mxCell>
        <mxCell id="NbQcgySadGwn3jhOum9s-9" value="&amp;lt;&amp;lt;stereotype1&amp;gt;&amp;gt;" style="text;html=1;strokeColor=none;fillColor=none;align=center;verticalAlign=middle;spacingLeft=4;spacingRight=4;overflow=hidden;rotatable=0;points=[[0,0.5],[1,0.5]];portConstraint=eastwest;whiteSpace=wrap;" vertex="1" parent="NbQcgySadGwn3jhOum9s-8">
          <mxGeometry y="29" width="250" height="25" as="geometry" />
        </mxCell>
        <mxCell id="NbQcgySadGwn3jhOum9s-10" value="stereotype property 1" style="text;html=1;strokeColor=none;fillColor=none;align=left;verticalAlign=middle;spacingLeft=4;spacingRight=4;overflow=hidden;rotatable=0;points=[[0,0.5],[1,0.5]];portConstraint=eastwest;whiteSpace=wrap;" vertex="1" parent="NbQcgySadGwn3jhOum9s-8">
          <mxGeometry y="54" width="250" height="25" as="geometry" />
        </mxCell>
        <mxCell id="NbQcgySadGwn3jhOum9s-11" value="QuantumInnovationsCompany" style="swimlane;fontStyle=1;align=center;verticalAlign=middle;childLayout=stackLayout;horizontal=1;startSize=29;horizontalStack=0;resizeParent=1;resizeParentMax=0;resizeLast=0;collapsible=0;marginBottom=0;html=1;whiteSpace=wrap;" vertex="1" parent="1">
          <mxGeometry x="310" y="380" width="250" height="79" as="geometry" />
        </mxCell>
        <mxCell id="NbQcgySadGwn3jhOum9s-12" value="&amp;lt;&amp;lt;stereotype1&amp;gt;&amp;gt;" style="text;html=1;strokeColor=none;fillColor=none;align=center;verticalAlign=middle;spacingLeft=4;spacingRight=4;overflow=hidden;rotatable=0;points=[[0,0.5],[1,0.5]];portConstraint=eastwest;whiteSpace=wrap;" vertex="1" parent="NbQcgySadGwn3jhOum9s-11">
          <mxGeometry y="29" width="250" height="25" as="geometry" />
        </mxCell>
        <mxCell id="NbQcgySadGwn3jhOum9s-13" value="stereotype property 1" style="text;html=1;strokeColor=none;fillColor=none;align=left;verticalAlign=middle;spacingLeft=4;spacingRight=4;overflow=hidden;rotatable=0;points=[[0,0.5],[1,0.5]];portConstraint=eastwest;whiteSpace=wrap;" vertex="1" parent="NbQcgySadGwn3jhOum9s-11">
          <mxGeometry y="54" width="250" height="25" as="geometry" />
        </mxCell>
      </root>
    </mxGraphModel>
  </diagram>
</mxfile>
